<mxfile host="app.diagrams.net" modified="2024-07-17T08:35:23.414Z" agent="Mozilla/5.0 (Macintosh; Intel Mac OS X 10_15_7) AppleWebKit/537.36 (KHTML, like Gecko) Chrome/126.0.0.0 Safari/537.36" version="24.6.4" etag="ZwTz5uVWmT_6ceOt5TNT" type="github">
  <diagram name="Seite-1" id="_uRfoFixPl9oZpYmQ2k3">
    <mxGraphModel>
      <root>
        <mxCell id="0" />
        <mxCell id="1" parent="0" />
      </root>
    </mxGraphModel>
  </diagram>
</mxfile>
